<?xml version="1.0" standalone="no"?>
<!DOCTYPE svg PUBLIC "-//W3C//DTD SVG 20010904//EN"
 "http://www.w3.org/TR/2001/REC-SVG-20010904/DTD/svg10.dtd">
<svg version="1.0" xmlns="http://www.w3.org/2000/svg"
 width="1280.000000pt" height="223.000000pt" viewBox="0 0 1280.000000 223.000000"
 preserveAspectRatio="xMidYMid meet">

<g transform="translate(0.000000,223.000000) scale(0.100000,-0.100000)"
fill="#000000" stroke="none">
<path d="M7268 1963 l-338 -3 0 -150 0 -150 295 0 295 0 0 -138 0 -139 -97 -6
c-54 -4 -187 -7 -296 -7 l-197 0 2 -297 3 -297 210 -3 c116 -2 315 -1 443 3
l232 6 0 589 0 589 -87 0 c-49 0 -97 1 -108 3 -11 1 -172 1 -357 0z"/>
<path d="M10318 1962 l-438 -2 -1 -228 c-1 -125 -3 -335 -4 -467 -1 -132 0
-297 3 -367 l5 -126 426 3 c234 2 433 4 442 4 15 1 17 19 18 139 0 75 -3 143
-8 151 -7 11 -59 13 -295 9 l-286 -4 0 143 0 143 73 1 c39 0 170 0 289 0 l217
0 3 300 c2 166 1 302 -2 302 -3 1 -202 1 -442 -1z"/>
<path d="M1160 1814 l0 -140 -143 1 -144 0 -6 -305 c-4 -168 -7 -373 -7 -456
l0 -151 68 -2 c37 -1 74 -3 82 -3 8 -1 48 0 88 0 l74 2 -2 28 c-1 15 -2 152
-1 305 l1 277 145 0 145 0 0 -294 0 -293 145 -7 c79 -4 149 -5 155 -1 6 4 10
105 10 289 l0 283 93 5 c50 3 112 4 137 4 l45 -2 1 -289 0 -290 144 2 c79 2
145 4 146 6 8 7 16 739 10 807 l-7 75 -147 0 -147 0 -1 135 c-1 78 2 138 8
141 5 3 -57 9 -139 12 -81 3 -151 3 -155 0 -5 -2 -8 -64 -8 -137 l0 -133 -107
-7 c-60 -5 -124 -9 -143 -9 l-35 -2 0 145 0 145 -152 0 -153 0 0 -141z"/>
<path d="M2749 1953 l-106 -4 -7 -135 c-4 -74 -4 -139 -2 -143 3 -4 19 -7 36
-6 16 1 82 2 145 3 l115 2 -1 145 -1 145 -36 -2 c-21 -1 -85 -4 -143 -5z"/>
<path d="M4450 1951 l-45 -6 -2 -90 c-2 -49 0 -114 3 -142 l5 -53 144 0 144 0
-2 148 -2 147 -100 1 c-55 1 -120 -2 -145 -5z"/>
<path d="M8110 1369 l0 -589 73 -1 c39 -1 83 -1 97 -1 14 -1 49 0 79 1 l54 1
-6 430 c-5 412 -5 431 13 440 23 12 267 13 274 2 3 -5 6 -204 7 -443 l1 -434
144 0 144 0 1 165 c1 91 3 289 5 440 l3 275 135 0 c74 0 138 -4 143 -8 4 -5 7
-88 6 -185 -2 -97 0 -291 4 -430 l6 -253 144 3 144 3 2 587 2 587 -737 0 -738
0 0 -590z"/>
<path d="M11188 1952 l-128 -3 0 -344 0 -345 93 -1 c50 0 182 -1 292 -2 l200
-2 3 -122 3 -123 -56 0 c-30 0 -75 -5 -100 -12 -38 -10 -48 -10 -54 1 -7 10
-16 11 -37 4 -17 -6 -51 -7 -84 -2 -30 4 -101 8 -157 8 l-101 1 -7 -51 c-4
-28 -4 -80 0 -115 l7 -64 439 0 439 0 0 346 0 346 -292 -4 -293 -3 0 115 0
115 230 -4 c127 -2 258 0 293 4 l62 7 0 98 c0 54 -3 111 -6 129 l-6 31 -307
-2 c-168 -2 -363 -4 -433 -6z"/>
<path d="M2638 1078 c2 -161 5 -294 6 -295 1 -1 68 -5 148 -9 141 -7 147 -6
142 12 -3 10 -6 145 -7 299 l-2 280 -145 3 -145 3 3 -293z"/>
<path d="M3226 1353 c-2 -10 -4 -144 -3 -298 l2 -280 153 -3 152 -3 0 146 0
145 140 0 139 0 3 -142 3 -143 150 0 150 0 0 295 0 295 -442 3 c-414 2 -442 1
-447 -15z"/>
<path d="M4443 1363 l-33 -4 0 -290 0 -289 144 0 145 0 -2 293 -2 292 -110 1
c-60 1 -125 -1 -142 -3z"/>
</g>
</svg>
